<?xml version="1.0" encoding="UTF-8" standalone="no"?>
<svg
   version="1.1"
   width="254.99989pt"
   height="141.00011pt"
   id="svg79"
   viewBox="0 0 254.99989 141.00011"
   sodipodi:docname="Logo1.cdr"
   xmlns:inkscape="http://www.inkscape.org/namespaces/inkscape"
   xmlns:sodipodi="http://sodipodi.sourceforge.net/DTD/sodipodi-0.dtd"
   xmlns="http://www.w3.org/2000/svg"
   xmlns:svg="http://www.w3.org/2000/svg">
  <defs
     id="defs83" />
  <sodipodi:namedview
     id="namedview81"
     pagecolor="#ffffff"
     bordercolor="#000000"
     borderopacity="0.25"
     inkscape:showpageshadow="2"
     inkscape:pageopacity="0.0"
     inkscape:pagecheckerboard="0"
     inkscape:deskcolor="#d1d1d1"
     inkscape:document-units="pt" />
  <g
     id="Layer1000">
    <path
       d="m 73.323,101.5699 v 6.8862 c 0,1.4901 0.1156,2.4364 0.8323,3.1916 0.6375,0.6781 1.5656,0.9849 2.3978,0.9849 0.8708,0 2.0505,-0.3656 2.7083,-1.3526 0.5802,-0.8526 0.5802,-2.3791 0.5802,-2.8239 v -6.8862 h 3.0941 v 7.6597 c 0,0.8895 -0.0182,2.3025 -0.9848,3.6363 -1.238,1.7416 -3.1728,2.2635 -5.2051,2.2635 -1.5655,0 -4.1394,-0.1745 -5.6274,-2.3796 -0.4448,-0.6391 -0.8911,-1.7599 -0.8911,-3.327 v -7.8529 z"
       style="fill:#565757;fill-rule:evenodd"
       id="path2" />
    <path
       d="m 97.1915,104.9932 c -0.9869,-0.5218 -2.0707,-1.0437 -3.6181,-1.0437 -3.1728,0 -4.6425,2.1645 -4.6425,4.3327 0,2.4567 1.8957,4.2368 4.604,4.2368 1.49,0 2.5723,-0.4447 4.1394,-1.3156 v 2.7854 c -1.5468,0.7348 -2.5535,1.1411 -4.5066,1.1411 -5.6295,0 -7.4669,-3.8291 -7.4669,-6.8477 0,-3.9468 3.0957,-6.868 7.5237,-6.868 1.8004,0 2.9801,0.4265 3.967,0.8526 z"
       style="fill:#565757;fill-rule:evenodd"
       id="path4" />
    <path
       d="m 102.2367,108.3197 c 0,2.1681 1.3541,4.2368 3.8879,4.2368 2.2838,0 3.9082,-1.7416 3.9082,-4.3342 0,-2.5723 -1.6244,-4.2733 -3.829,-4.2733 -2.8442,0 -3.9671,2.3588 -3.9671,4.3707 z m 10.9871,-0.0771 c 0,3.153 -2.2228,6.8862 -7.0404,6.8862 -4.7201,0 -7.1383,-3.5405 -7.1383,-6.8659 0,-3.1348 2.3026,-6.8498 6.9842,-6.8498 4.9899,0 7.1945,3.7338 7.1945,6.8295 z"
       style="fill:#565757;fill-rule:evenodd"
       id="path6" />
    <path
       d="m 118.6185,101.5699 7.0039,8.3945 v -8.3945 h 2.9577 v 13.4053 h -2.6291 l -7.1013,-8.5492 v 8.5492 h -2.9577 v -13.4053 z"
       style="fill:#565757;fill-rule:evenodd"
       id="path8" />
    <path
       d="m 135.2133,101.5699 7.0023,8.3945 v -8.3945 h 2.9598 v 13.4053 h -2.6311 l -7.0993,-8.5492 v 8.5492 h -2.9598 v -13.4053 z"
       style="fill:#565757;fill-rule:evenodd"
       id="path10" />
    <path
       d="m 157.5334,101.5699 v 2.302 h -5.378 v 3.0171 h 5.165 v 2.3004 h -5.165 v 3.4833 h 5.4754 v 2.3025 h -8.5695 v -13.4053 z"
       style="fill:#565757;fill-rule:evenodd"
       id="path12" />
    <path
       d="m 171.2845,104.9932 c -0.9869,-0.5218 -2.0708,-1.0437 -3.6176,-1.0437 -3.1733,0 -4.6431,2.1645 -4.6431,4.3327 0,2.4567 1.8963,4.2368 4.6046,4.2368 1.49,0 2.5718,-0.4447 4.1394,-1.3156 v 2.7854 c -1.5473,0.7348 -2.5541,1.1411 -4.5071,1.1411 -5.6295,0 -7.467,-3.8291 -7.467,-6.8477 0,-3.9468 3.0942,-6.868 7.5237,-6.868 1.801,0 2.9802,0.4265 3.9671,0.8526 z"
       style="fill:#565757;fill-rule:evenodd"
       id="path14" />
    <path
       d="m 184.919,101.5699 v 2.302 h -4.6629 v 11.1033 h -3.0942 v -11.1033 h -4.6613 v -2.302 z"
       style="fill:#565757;fill-rule:evenodd"
       id="path16" />
    <path
       d="m 71.1434,123.5104 h -1.0625 v -4.2062 h 1.0625 z"
       style="fill:#e30016;fill-rule:evenodd"
       id="path18" />
    <path
       d="m 76.4422,123.5104 h -0.876 l -2.3244,-2.6036 v 2.6036 h -1.0437 v -4.2062 h 0.9572 l 2.2525,2.4786 v -2.4786 h 1.0344 z"
       style="fill:#e30016;fill-rule:evenodd"
       id="path20" />
    <path
       d="m 81.2926,120.0938 h -1.5177 v 3.4155 h -1.0656 v -3.4155 h -1.5234 v -0.7901 h 4.1067 z"
       style="fill:#e30016;fill-rule:evenodd"
       id="path22" />
    <path
       d="M 85.1456,123.5104 H 82.042 v -4.2062 h 3.0593 v 0.7828 H 83.104 v 0.8526 h 1.9056 v 0.7885 H 83.104 v 1.0104 h 2.0416 z"
       style="fill:#e30016;fill-rule:evenodd"
       id="path24" />
    <path
       d="m 87.1236,120.0688 v 0.9609 h 0.4375 c 0.2719,-0.0109 0.3396,-0.0109 0.45,-0.0734 0.1542,-0.0808 0.2276,-0.2354 0.2276,-0.4063 0,-0.4812 -0.4667,-0.4812 -0.5838,-0.4812 z m 0.5547,-0.7646 c 0.3823,0 0.7646,0 1.1046,0.2099 0.2224,0.1469 0.549,0.4922 0.549,0.9922 0,0.7036 -0.5437,0.9494 -0.7219,1.0359 0.3032,0.1489 0.5125,0.5734 0.6047,0.7885 0.1172,0.2406 0.2958,0.6354 0.4057,0.8781 l 0.1438,0.3016 H 88.61 c -0.0916,-0.186 -0.4557,-1.0182 -0.5421,-1.1833 -0.2844,-0.5328 -0.4943,-0.5328 -0.7901,-0.5328 h -0.1542 v 1.7161 h -1.0598 v -4.2062 z"
       style="fill:#e30016;fill-rule:evenodd"
       id="path26" />
    <path
       d="m 94.6093,123.5104 h -0.8765 l -2.326,-2.6036 v 2.6036 h -1.0416 v -4.2062 h 0.9552 l 2.2525,2.4786 v -2.4786 h 1.0364 z"
       style="fill:#e30016;fill-rule:evenodd"
       id="path28" />
    <path
       d="m 97.5285,120.3146 -0.6172,1.6297 h 1.2953 z m 2.4603,3.1952 h -1.128 l -0.3453,-0.8322 h -1.8818 l -0.314,0.8322 h -1.1099 l 1.6958,-4.2056 h 1.2146 z"
       style="fill:#e30016;fill-rule:evenodd"
       id="path30" />
    <path
       d="m 103.6507,120.0938 h -1.5177 v 3.4155 h -1.0655 v -3.4155 h -1.5234 v -0.7901 h 4.1066 z"
       style="fill:#e30016;fill-rule:evenodd"
       id="path32" />
    <path
       d="m 105.4605,123.5104 h -1.0598 v -4.2062 h 1.0598 z"
       style="fill:#e30016;fill-rule:evenodd"
       id="path34" />
    <path
       d="m 108.6771,120.1422 c -0.7531,0 -1.3192,0.4557 -1.3192,1.2901 0,1.0046 0.825,1.2822 1.3249,1.2822 0.6724,0 1.3266,-0.4447 1.3266,-1.277 0,-0.7844 -0.5125,-1.2953 -1.3323,-1.2953 z m -0.013,3.4228 c -1.4552,0 -2.3994,-1.0546 -2.3994,-2.153 0,-0.9797 0.814,-2.1625 2.4181,-2.1625 1.4865,0 2.4125,1.0656 2.4125,2.1625 0,0.9755 -0.7958,2.153 -2.4312,2.153 z"
       style="fill:#e30016;fill-rule:evenodd"
       id="path36" />
    <path
       d="m 116.1352,123.5104 h -0.8765 l -2.3244,-2.6036 v 2.6036 h -1.0432 v -4.2062 h 0.9572 l 2.2526,2.4786 v -2.4786 h 1.0343 z"
       style="fill:#e30016;fill-rule:evenodd"
       id="path38" />
    <path
       d="m 119.0554,120.3146 -0.6177,1.6297 h 1.2958 z m 2.4598,3.1952 h -1.128 l -0.3453,-0.8322 h -1.8812 l -0.3146,0.8322 h -1.1093 l 1.6957,-4.2056 h 1.2146 z"
       style="fill:#e30016;fill-rule:evenodd"
       id="path40" />
    <path
       d="m 125.3235,123.5104 h -3.2062 v -4.2062 h 1.0604 v 3.4213 h 2.1458 z"
       style="fill:#e30016;fill-rule:evenodd"
       id="path42" />
    <path
       d="m 130.9629,123.5104 h -3.1015 v -4.2062 h 3.0593 v 0.7828 h -1.9989 v 0.8526 h 1.9051 v 0.7885 h -1.9051 v 1.0104 h 2.0411 z"
       style="fill:#e30016;fill-rule:evenodd"
       id="path44" />
    <path
       d="m 132.9404,120.1063 v 2.602 h 0.424 c 0.588,0 0.7536,-0.0479 0.926,-0.1234 0.4265,-0.1855 0.7041,-0.5933 0.7041,-1.1906 0,-0.4557 -0.1672,-0.9552 -0.7093,-1.1776 -0.2719,-0.1104 -0.5313,-0.1104 -0.8141,-0.1104 z m 0.6536,-0.8026 c 0.2703,0 0.6599,0 1.1411,0.1651 0.3328,0.1193 1.3432,0.6302 1.3432,1.9312 0,0.4208 -0.1047,1.2953 -1.0234,1.7968 -0.4005,0.2151 -0.8067,0.3141 -1.5416,0.3141 H 131.88 v -4.2072 z"
       style="fill:#e30016;fill-rule:evenodd"
       id="path46" />
    <path
       d="m 141.1219,121.5922 c 0,0.3343 -0.005,0.8578 -0.3635,1.2953 -0.4318,0.5182 -1.1229,0.6781 -1.7713,0.6781 -0.3271,0 -1.2015,-0.0131 -1.7692,-0.7464 -0.1672,-0.2218 -0.3219,-0.5177 -0.3219,-1.1958 v -2.3186 h 1.062 v 2.0832 c 0,0.1729 0,0.4193 0.0734,0.6542 0.1359,0.4687 0.5625,0.6781 0.976,0.6781 0.6099,0 0.8927,-0.4005 0.9791,-0.6172 0.0735,-0.1838 0.0735,-0.3437 0.0735,-0.7151 v -2.0832 h 1.0619 z"
       style="fill:#e30016;fill-rule:evenodd"
       id="path48" />
    <path
       d="m 145.99,123.1458 c -0.6177,0.3271 -1.1172,0.4208 -1.6536,0.4208 -1.6354,0 -2.4473,-1.0692 -2.4473,-2.1458 0,-1.064 0.8322,-2.1718 2.539,-2.1718 0.7661,0 1.2952,0.2406 1.5119,0.3693 v 0.9682 c -0.1724,-0.1302 -0.7088,-0.4573 -1.4364,-0.4573 -0.8766,0 -1.525,0.5068 -1.525,1.2786 0,0.825 0.7037,1.288 1.4937,1.288 0.3948,0 0.7641,-0.112 1.1172,-0.2885 l 0.4005,-0.2297 z"
       style="fill:#e30016;fill-rule:evenodd"
       id="path50" />
    <path
       d="m 148.806,120.3146 -0.6171,1.6297 h 1.2953 z m 2.4604,3.1952 h -1.1281 l -0.3458,-0.8322 h -1.8812 l -0.3141,0.8322 h -1.1098 l 1.6958,-4.2056 h 1.2145 z"
       style="fill:#e30016;fill-rule:evenodd"
       id="path52" />
    <path
       d="m 154.9272,120.0938 h -1.5176 v 3.4155 h -1.0656 v -3.4155 h -1.5234 v -0.7901 h 4.1066 z"
       style="fill:#e30016;fill-rule:evenodd"
       id="path54" />
    <path
       d="m 156.7386,123.5104 h -1.0619 v -4.2062 h 1.0619 z"
       style="fill:#e30016;fill-rule:evenodd"
       id="path56" />
    <path
       d="m 159.9536,120.1422 c -0.7531,0 -1.3192,0.4557 -1.3192,1.2901 0,1.0046 0.825,1.2822 1.3249,1.2822 0.6724,0 1.3266,-0.4447 1.3266,-1.277 0,-0.7844 -0.513,-1.2953 -1.3323,-1.2953 z m -0.013,3.4228 c -1.4552,0 -2.3994,-1.0546 -2.3994,-2.153 0,-0.9797 0.814,-2.1625 2.4181,-2.1625 1.4865,0 2.4125,1.0656 2.4125,2.1625 0,0.9755 -0.7958,2.153 -2.4312,2.153 z"
       style="fill:#e30016;fill-rule:evenodd"
       id="path58" />
    <path
       d="m 167.4133,123.5104 h -0.8766 l -2.3259,-2.6036 v 2.6036 h -1.0417 v -4.2062 h 0.9552 l 2.2531,2.4786 v -2.4786 h 1.0359 z"
       style="fill:#e30016;fill-rule:evenodd"
       id="path60" />
    <path
       d="m 174.4974,123.5104 h -1.0546 v -1.7036 h -2.0838 v 1.7036 h -1.062 v -4.2062 h 1.062 v 1.6885 h 2.0838 v -1.6885 h 1.0546 z"
       style="fill:#e30016;fill-rule:evenodd"
       id="path62" />
    <path
       d="m 179.7363,121.5922 c 0,0.3343 -0.006,0.8578 -0.364,1.2953 -0.4318,0.5182 -1.1224,0.6781 -1.7708,0.6781 -0.3271,0 -1.2015,-0.0131 -1.7697,-0.7464 -0.1672,-0.2218 -0.3214,-0.5177 -0.3214,-1.1958 v -2.3186 h 1.062 v 2.0832 c 0,0.1729 0,0.4193 0.0734,0.6542 0.1359,0.4687 0.5625,0.6781 0.976,0.6781 0.6099,0 0.8927,-0.4005 0.9791,-0.6172 0.0735,-0.1838 0.0735,-0.3437 0.0735,-0.7151 v -2.0832 h 1.0619 z"
       style="fill:#e30016;fill-rule:evenodd"
       id="path64" />
    <path
       d="m 181.8232,121.7338 v 1.0125 h 0.5182 c 0.3636,0 0.8818,0 0.8818,-0.5015 0,-0.511 -0.5,-0.511 -0.9318,-0.511 z m 0,-1.6775 v 0.9187 h 0.3948 c 0.2406,0 0.7094,0 0.7094,-0.463 0,-0.4557 -0.463,-0.4557 -0.6906,-0.4557 z m 0.5365,-0.7515 c 0.3031,0 0.5364,0 0.8192,0.0791 0.5495,0.1615 0.8031,0.599 0.8031,0.9682 0,0.3016 -0.1781,0.6484 -0.5677,0.8453 0.2224,0.0677 0.8891,0.2771 0.8891,1.0859 0,0.3693 -0.1375,0.7713 -0.599,1.0286 -0.2849,0.1599 -0.5364,0.1985 -1.0124,0.1985 h -1.9364 v -4.2056 z"
       style="fill:#e30016;fill-rule:evenodd"
       id="path66" />
    <path
       d="m 81.6457,29.9019 v 32.162 c 0,0 -18.739,11.9022 -8.1024,18.4837 0,0 -15.1985,-8.2257 33.9333,-28.6126 0,0 -10.5111,3.1655 -14.6875,4.9384 V 29.9019 Z"
       style="fill:#e30016;fill-rule:evenodd"
       id="path68" />
    <path
       d="m 113.4296,29.9019 v 33.1765 c 0,0 -0.8234,1.8994 -12.6647,7.0899 0,0 18.2332,-5.9509 23.6773,-11.0163 V 29.9019 Z"
       style="fill:#e30016;fill-rule:evenodd"
       id="path70" />
    <path
       d="m 125.8385,59.1514 12.7861,-8.4825 c 0,0 3.5478,-10.0065 14.5662,-11.397 l 10.3809,-9.3706 c 0,0 -18.4874,-6.5831 -32.6693,12.1538 0,0 -5.0639,6.4602 -5.0639,17.0963 z"
       style="fill:#e30016;fill-rule:evenodd"
       id="path72" />
    <path
       d="m 101.5263,56.6182 c 0,0 -5.1925,3.1655 -8.6138,6.5852 l -0.1229,8.9898 c 0,0 -13.6735,3.5463 -9.1169,-1.6442 0,0 9.1169,-9.7507 17.8536,-13.9308 z"
       style="fill:#565757;fill-rule:evenodd"
       id="path74" />
    <path
       d="m 98.2931,79.7263 c 0,0 7.7903,-1.8999 13.6751,-4.1759 0,0 -3.6067,8.356 -13.6751,4.1759 z m 58.1882,1.0807 c -15.4484,-0.3823 -19.7535,-16.8432 -19.7535,-16.8432 20.0087,-11.5252 31.0214,-21.2722 31.0214,-21.2722 1.2645,0.7588 4.5566,4.1759 4.5566,4.1759 h 12.4095 c -1.7713,-5.5686 -9.2434,-11.7736 -9.2434,-11.7736 6.8367,-7.5987 4.6868,-11.9038 4.6868,-11.9038 -3.1655,-10.5075 -26.4648,-3.4176 -26.4648,-3.4176 13.6788,-2.0265 16.8391,0 16.8391,0 7.0904,2.0265 -15.0678,20.2603 -15.0678,20.2603 C 134.0675,59.5322 108.7438,69.4079 108.7438,69.4079 83.0415,78.9071 79.4937,74.0916 79.4937,74.0916 76.9635,71.4307 91.649,61.2795 91.649,61.2795 73.035,72.0172 73.7959,75.6129 73.7959,75.6129 c 1.0125,5.8243 10.8898,4.9347 10.8898,4.9347 5.1925,11.1455 17.3442,10.3867 17.3442,10.3867 21.9066,0.5068 22.2868,-20.2603 22.2868,-20.2603 l 2.7853,-1.2661 c 7.8477,22.792 28.7434,21.3957 28.7434,21.3957 22.0332,0.5109 28.7449,-17.7245 28.7449,-17.7245 h -12.7897 c -6.2008,8.4847 -15.3193,7.7279 -15.3193,7.7279 z"
       style="fill:#565757;fill-rule:evenodd"
       id="path76" />
  </g>
</svg>
